<svg data-name="25" xmlns="http://www.w3.org/2000/svg" viewBox="0 0 100 50"><title>25</title><style>  * { fill: #fff; } </style><path d="M9.1,36.9,28.441,23.029c2.935-2.068,4.069-3.868,4.069-5.669,0-2-1.534-3.468-4.2-3.468s-5.136,1.667-9,5.8L9.033,10.957C14.436,4.288,19.9.686,29.642.686c10.671,0,18.341,6.4,18.341,15.273v.134c0,7.136-3.8,11.005-9.4,14.606l-8.338,5.336H48.45V48.24H9.1Z"/><path d="M49.747,41.571l8.6-10c4,3.2,7.736,5.069,11.538,5.069,3.735,0,5.869-1.934,5.869-4.468v-.134c0-2.735-2.2-4.469-5.469-4.469-2.868,0-4.935,1.2-7.136,2.935l-9.4-4.669L55.083,1.553H88.764V13.892H66.688l-.334,6.069a16.007,16.007,0,0,1,8.871-2.534c7.736,0,15.607,4.935,15.607,14.74V32.3c0,10.8-8.871,16.941-20.743,16.941C61.019,49.241,54.949,46.239,49.747,41.571Z"/></svg>