<svg data-name="15" xmlns="http://www.w3.org/2000/svg" viewBox="0 0 99 50"><title>15</title><style>  * { fill: #fff; } </style><path d="M24.871,14.892l-7.6,1.668-2.8-11.539,13.94-3.8H40.211V48.24H24.871Z"/><path d="M43.014,41.571l8.6-10c4,3.2,7.736,5.069,11.538,5.069,3.735,0,5.869-1.934,5.869-4.468v-.134c0-2.735-2.2-4.469-5.468-4.469-2.869,0-4.936,1.2-7.137,2.935l-9.4-4.669L48.35,1.553H82.031V13.892H59.955l-.334,6.069a16.007,16.007,0,0,1,8.871-2.534c7.737,0,15.607,4.935,15.607,14.74V32.3c0,10.8-8.871,16.941-20.743,16.941C54.286,49.241,48.216,46.239,43.014,41.571Z"/></svg>