<svg data-name="December" xmlns="http://www.w3.org/2000/svg" viewBox="0 0 95 30.9"><title>December</title><style>  * { fill: #fff; } </style><path d="M4.542.9H15.294C24.358.9,30.62,7.12,30.62,15.236v.083c0,8.116-6.262,14.419-15.326,14.419H4.542ZM9.609,5.513V25.124h5.685c6.057,0,10.012-4.079,10.012-9.723v-.082c0-5.645-3.955-9.806-10.012-9.806Z"/><path d="M38.161.9H59.542V5.431H43.228v7.5h14.46v4.532H43.228v7.746H59.749v4.531H38.161Z"/><path d="M65.34,15.4v-.082A14.594,14.594,0,0,1,80.213.405,15.031,15.031,0,0,1,91.5,4.9L88.247,8.645C85.939,6.5,83.467,5.06,80.171,5.06c-5.479,0-9.517,4.532-9.517,10.176v.083c0,5.644,4,10.217,9.517,10.217,3.543,0,5.809-1.4,8.281-3.708l3.255,3.3a14.88,14.88,0,0,1-11.7,5.109A14.5,14.5,0,0,1,65.34,15.4Z"/></svg>