<svg data-name="31" xmlns="http://www.w3.org/2000/svg" viewBox="0 0 100 51"><title>31</title><style>  * { fill: #fff; } </style><path d="M15.067,40.837l9.27-9.538c3.469,3.268,7.137,5.069,11.005,5.069,3.469,0,5.336-1.534,5.336-3.735V32.5c0-2.268-2-3.735-6.136-3.735h-6.6l-2.067-6.936,10.271-8.138H18.8V1.553H54.685V12.291l-10.472,7.87c7,1.868,11.538,5.936,11.538,13.273v.133c0,10.071-8.8,15.674-19.141,15.674C27.005,49.241,20.2,46.106,15.067,40.837Z"/><path d="M66.6,14.892l-7.6,1.668-2.8-11.539,13.939-3.8H81.938V48.24H66.6Z"/></svg>