<svg data-name="February" xmlns="http://www.w3.org/2000/svg" viewBox="0 0 100 30.9"><title>February</title><style>  * { fill: #fff; } </style><path d="M10.378.9H31.843V5.514h-16.4v7.869H29.989V18H15.446V29.739H10.378Z"/><path d="M38.221.9H59.6V5.432H43.289v7.5h14.46v4.531H43.289v7.746h16.52v4.532H38.221Z"/><path d="M67.44.9H80.376c3.3,0,5.892.907,7.54,2.555a6.459,6.459,0,0,1,1.936,4.779v.082a6.866,6.866,0,0,1-4.12,6.427c3.378,1.154,5.726,3.091,5.726,7v.083c0,5.15-4.243,7.91-10.67,7.91H67.44ZM84.785,9.057c0-2.266-1.813-3.667-5.068-3.667H72.425v7.663h6.921c3.255,0,5.439-1.277,5.439-3.913Zm-4.327,8.281H72.425v7.91H80.83c3.46,0,5.561-1.359,5.561-3.955V21.21C86.391,18.78,84.455,17.338,80.458,17.338Z"/></svg>