<svg data-name="9" xmlns="http://www.w3.org/2000/svg" viewBox="0 0 100 50"><title>9</title><style>  * { fill: #fff; } </style><path d="M5.978,25.03V24.9c0-12.872,8.4-24.344,22.543-24.344s22.41,11.339,22.41,24.211V24.9c0,12.873-8.4,24.345-22.544,24.345S5.978,37.9,5.978,25.03Zm29.479,0V24.9c0-6.4-2.868-10.8-7.07-10.8s-6.936,4.268-6.936,10.671V24.9c0,6.4,2.868,10.805,7.07,10.805S35.457,31.433,35.457,25.03Z"/><path d="M78.745,28.365A14.371,14.371,0,0,1,68.407,32.7c-7.936,0-14.673-5.669-14.673-14.473v-.133c0-11.139,8.6-17.542,19.409-17.542,7.27,0,11.671,2.2,15.207,5.737,3.4,3.4,5.669,9,5.669,17.007v.133c0,15.341-8.137,25.812-22.744,25.812A28.111,28.111,0,0,1,54,43.771L60.737,33.7a15.955,15.955,0,0,0,9.805,3.534C77.011,37.235,78.412,31.9,78.745,28.365Zm.134-10.872V17.36a5.306,5.306,0,0,0-5.2-5.6c-3.068,0-5.069,2.468-5.069,5.536v.134a5.064,5.064,0,0,0,5.2,5.269A4.976,4.976,0,0,0,78.879,17.493Z"/></svg>