<svg data-name="August" xmlns="http://www.w3.org/2000/svg" viewBox="0 0 100 30.9"><title>August</title><style>  * { fill: #fff; } </style><path d="M15.388.694h4.7L32.774,29.739H27.418l-2.925-6.963H10.856L7.89,29.739H2.7Zm7.251,17.592L17.654,6.75,12.71,18.286Z"/><path d="M37.026,17.5V.9h5.068V17.3c0,5.355,2.76,8.2,7.292,8.2,4.49,0,7.251-2.678,7.251-7.992V.9H61.7V17.255c0,8.611-4.861,12.937-12.4,12.937C41.805,30.192,37.026,25.866,37.026,17.5Z"/><path d="M68.816,15.4v-.082A14.692,14.692,0,0,1,83.688.405,15.573,15.573,0,0,1,94.771,4.319L91.558,8.15a11.3,11.3,0,0,0-8.075-3.089c-5.315,0-9.352,4.655-9.352,10.176v.082c0,5.933,3.913,10.3,9.805,10.3A11.772,11.772,0,0,0,90.9,23.436v-5.4H83.524V13.63H95.8V25.743a18.391,18.391,0,0,1-12.03,4.49C74.749,30.233,68.816,23.806,68.816,15.4Z"/></svg>