<svg data-name="June" xmlns="http://www.w3.org/2000/svg" viewBox="0 0 95 30.9"><title>June</title><style>  * { fill: #fff; } </style><path d="M3.671,25.5l3.337-3.461c1.69,2.184,3.379,3.42,5.809,3.42,2.72,0,4.574-1.813,4.574-5.686V.9h5.232V19.933c0,3.42-1.03,5.974-2.719,7.663a9.631,9.631,0,0,1-7,2.554A10.862,10.862,0,0,1,3.671,25.5Z"/><path d="M31.069,17.5V.9h5.068V17.3c0,5.356,2.76,8.2,7.292,8.2,4.49,0,7.251-2.678,7.251-7.993V.9h5.067V17.255c0,8.611-4.861,12.936-12.4,12.936C35.848,30.191,31.069,25.866,31.069,17.5Z"/><path d="M64.5.9h4.7l15.449,19.94V.9h4.986V29.738H85.39L69.487,9.221V29.738H64.5Z"/></svg>