<svg data-name="22" xmlns="http://www.w3.org/2000/svg" viewBox="0 0 100 50"><title>22</title><style>  * { fill: #fff; } </style><path d="M9.256,36.9,28.6,23.029c2.935-2.068,4.069-3.868,4.069-5.669,0-2-1.534-3.468-4.2-3.468s-5.136,1.667-9,5.8L9.189,10.957C14.592,4.288,20.061.686,29.8.686c10.671,0,18.341,6.4,18.341,15.273v.134c0,7.136-3.8,11.005-9.4,14.606L30.4,36.035H48.607V48.24H9.256Z"/><path d="M51.324,36.9,70.666,23.029c2.935-2.068,4.068-3.868,4.068-5.669,0-2-1.533-3.468-4.2-3.468s-5.136,1.667-9,5.8L51.258,10.957C56.66,4.288,62.129.686,71.867.686c10.671,0,18.341,6.4,18.341,15.273v.134c0,7.136-3.8,11.005-9.4,14.606l-8.337,5.336H90.675V48.24H51.324Z"/></svg>