<svg data-name="18" xmlns="http://www.w3.org/2000/svg" viewBox="0 0 95 50"><title>18</title><style>  * { fill: #fff; } </style><path d="M24.6,14.892l-7.6,1.668-2.8-11.539,13.939-3.8H39.938V48.24H24.6Z"/><path d="M44.221,35.368v-.134c0-5.669,3.335-9.137,8.4-11.205-3.535-1.8-6.8-5-6.8-10.137v-.134c0-7.67,7.67-13.072,18.741-13.072s18.742,5.4,18.742,13.072v.134c0,5.135-3.268,8.337-6.8,10.137,4.735,1.935,8.4,5.269,8.4,11.205v.134c0,8.137-8.27,13.739-20.343,13.739S44.221,43.438,44.221,35.368Zm25.745-1.734V33.5c0-2.534-2.134-4.535-5.4-4.535s-5.4,2-5.4,4.535v.134c0,2.334,1.8,4.669,5.4,4.669S69.966,35.9,69.966,33.634Zm-.534-17.808v-.134a4.893,4.893,0,0,0-9.737,0v.134a4.544,4.544,0,0,0,4.868,4.535A4.545,4.545,0,0,0,69.432,15.826Z"/></svg>