<svg data-name="24" xmlns="http://www.w3.org/2000/svg" viewBox="0 0 95 50"><title>24</title><style>  * { fill: #fff; } </style><path d="M7.516,36.9,26.857,23.029c2.935-2.068,4.069-3.868,4.069-5.669,0-2-1.534-3.468-4.2-3.468s-5.136,1.667-9,5.8L7.449,10.957C12.852,4.288,18.32.686,28.058.686,38.729.686,46.4,7.089,46.4,15.959v.134C46.4,23.229,42.6,27.1,37,30.7l-8.338,5.336H46.866V48.24H7.516Z"/><path d="M72.407,40.17H49.93L47.4,29.232,70.206,1.219H87.547V29.165h5.6V40.17h-5.6v8.07H72.407Zm0-10.805V16.96l-9.938,12.4Z"/></svg>