<svg data-name="6" xmlns="http://www.w3.org/2000/svg" viewBox="0 0 95 50"><title>6</title><style>  * { fill: #fff; } </style><path d="M3.744,25.03V24.9c0-12.872,8.4-24.344,22.543-24.344S48.7,11.891,48.7,24.763V24.9c0,12.873-8.4,24.345-22.543,24.345S3.744,37.9,3.744,25.03Zm29.48,0V24.9c0-6.4-2.868-10.8-7.07-10.8s-6.937,4.268-6.937,10.671V24.9c0,6.4,2.868,10.805,7.07,10.805S33.224,31.433,33.224,25.03Z"/><path d="M57.77,43.638c-3.535-3.534-5.936-9-5.936-17.274V26.23c0-14.606,7.6-25.678,22.877-25.678a26.739,26.739,0,0,1,16.474,5.07L84.449,15.893c-2.735-1.935-5.6-3.335-9.071-3.335-6.336,0-7.937,5.6-8.2,9.137,3.535-2.934,6.737-4.135,10.538-4.135,7.137,0,14.407,5.2,14.407,14.206V31.9c0,11.271-9,17.341-19.342,17.341C65.707,49.241,61.238,47.106,57.77,43.638Zm19.409-10.8V32.7a5.069,5.069,0,0,0-5.136-5.2,4.9,4.9,0,0,0-5,5.135v.134a5.085,5.085,0,0,0,5.136,5.269A4.922,4.922,0,0,0,77.179,32.833Z"/></svg>