<svg data-name="November" xmlns="http://www.w3.org/2000/svg" viewBox="0 0 100 30.9"><title>November</title><style>  * { fill: #fff; } </style><path d="M3.034.9h4.7l15.45,19.94V.9h4.985V29.738H23.921L8.019,9.221V29.738H3.034Z"/><path d="M35.771,15.4v-.082A14.776,14.776,0,0,1,50.891.405,14.639,14.639,0,0,1,65.929,15.236v.083a14.776,14.776,0,0,1-15.12,14.914A14.64,14.64,0,0,1,35.771,15.4Zm24.843,0v-.082c0-5.6-4.079-10.259-9.8-10.259s-9.723,4.573-9.723,10.176v.083c0,5.6,4.079,10.217,9.805,10.217S60.614,21,60.614,15.4Z"/><path d="M69.159.9h5.6l8.693,22.165L92.106.9h5.48L85.638,29.944H81.147Z"/></svg>