<svg data-name="29" xmlns="http://www.w3.org/2000/svg" viewBox="0 0 100 50"><title>29</title><style>  * { fill: #fff; } </style><path d="M8.186,36.9,27.528,23.029c2.934-2.068,4.069-3.868,4.069-5.669,0-2-1.535-3.468-4.2-3.468s-5.136,1.667-9,5.8L8.119,10.957C13.522,4.288,18.991.686,28.729.686,39.4.686,47.07,7.089,47.07,15.959v.134c0,7.136-3.8,11.005-9.4,14.606l-8.337,5.336H47.537V48.24H8.186Z"/><path d="M75.805,28.365A14.373,14.373,0,0,1,65.467,32.7c-7.937,0-14.673-5.669-14.673-14.473v-.133C50.794,6.955,59.4.552,70.2.552c7.269,0,11.671,2.2,15.206,5.737,3.4,3.4,5.669,9,5.669,17.007v.133c0,15.341-8.137,25.812-22.743,25.812a28.107,28.107,0,0,1-17.274-5.47L57.8,33.7a15.953,15.953,0,0,0,9.8,3.534C74.071,37.235,75.472,31.9,75.805,28.365Zm.133-10.872V17.36a5.306,5.306,0,0,0-5.2-5.6c-3.068,0-5.069,2.468-5.069,5.536v.134a5.063,5.063,0,0,0,5.2,5.269A4.975,4.975,0,0,0,75.938,17.493Z"/></svg>