<svg data-name="2" xmlns="http://www.w3.org/2000/svg" viewBox="0 0 100 50">
    <title>2</title><style>  * { fill: #fff; } </style>
    <path d="M7.4,25.03V24.9C7.4,12.024,15.8.552,29.938.552S52.349,11.891,52.349,24.763V24.9c0,12.873-8.4,24.345-22.544,24.345S7.4,37.9,7.4,25.03Zm29.479,0V24.9c0-6.4-2.868-10.8-7.07-10.8s-6.936,4.268-6.936,10.671V24.9c0,6.4,2.868,10.805,7.069,10.805S36.875,31.433,36.875,25.03Z"/>
    <path d="M53.918,36.9,73.26,23.029c2.935-2.068,4.069-3.868,4.069-5.669,0-2-1.534-3.468-4.2-3.468s-5.136,1.667-9,5.8L53.852,10.957C59.254,4.288,64.723.686,74.461.686,85.132.686,92.8,7.089,92.8,15.959v.134C92.8,23.229,89,27.1,83.4,30.7l-8.337,5.336H93.269V48.24H53.918Z"/>
</svg>