<svg data-name="16" xmlns="http://www.w3.org/2000/svg" viewBox="0 0 100 50"><title>16</title><style>  * { fill: #fff; } </style><path d="M23.794,14.892l-7.6,1.668-2.8-11.539,13.94-3.8H39.134V48.24H23.794Z"/><path d="M50.027,43.638c-3.535-3.534-5.936-9-5.936-17.274V26.23c0-14.606,7.6-25.678,22.877-25.678a26.739,26.739,0,0,1,16.474,5.07L76.706,15.893c-2.735-1.935-5.6-3.335-9.071-3.335-6.336,0-7.937,5.6-8.2,9.137,3.535-2.934,6.736-4.135,10.538-4.135,7.137,0,14.406,5.2,14.406,14.206V31.9c0,11.271-9,17.341-19.341,17.341C57.964,49.241,53.5,47.106,50.027,43.638Zm19.409-10.8V32.7A5.069,5.069,0,0,0,64.3,27.5a4.9,4.9,0,0,0-5,5.135v.134a5.085,5.085,0,0,0,5.136,5.269A4.923,4.923,0,0,0,69.436,32.833Z"/></svg>