<svg data-name="5" xmlns="http://www.w3.org/2000/svg" viewBox="0 0 100 50"><title>5</title><style>  * { fill: #fff; } </style><path d="M7.161,25.03V24.9C7.161,12.024,15.564.552,29.7.552s22.41,11.339,22.41,24.211V24.9c0,12.873-8.4,24.345-22.543,24.345S7.161,37.9,7.161,25.03Zm29.48,0V24.9c0-6.4-2.868-10.8-7.07-10.8s-6.937,4.268-6.937,10.671V24.9c0,6.4,2.868,10.805,7.07,10.805S36.641,31.433,36.641,25.03Z"/><path d="M52.57,41.571l8.6-10c4,3.2,7.737,5.069,11.538,5.069,3.735,0,5.87-1.934,5.87-4.468v-.134c0-2.735-2.2-4.469-5.47-4.469-2.867,0-4.935,1.2-7.136,2.935l-9.4-4.669L57.906,1.553H91.587V13.892H69.511l-.334,6.069a16.007,16.007,0,0,1,8.871-2.534c7.737,0,15.607,4.935,15.607,14.74V32.3c0,10.8-8.871,16.941-20.742,16.941C63.842,49.241,57.772,46.239,52.57,41.571Z"/></svg>