<svg data-name="3" xmlns="http://www.w3.org/2000/svg" viewBox="0 0 99 50">
    <title>3</title><style>  * { fill: #fff; } </style>
    <path d="M7.85,25.03V24.9C7.85,12.024,16.253.552,30.393.552S52.8,11.891,52.8,24.763V24.9c0,12.873-8.4,24.345-22.543,24.345S7.85,37.9,7.85,25.03Zm29.48,0V24.9c0-6.4-2.868-10.8-7.07-10.8s-6.937,4.268-6.937,10.671V24.9c0,6.4,2.868,10.805,7.07,10.805S37.33,31.433,37.33,25.03Z"/>
    <path d="M52.539,40.837,61.81,31.3c3.468,3.268,7.136,5.069,11,5.069,3.469,0,5.336-1.534,5.336-3.735V32.5c0-2.268-2-3.735-6.136-3.735h-6.6l-2.067-6.936,10.271-8.138H56.274V1.553H92.156V12.291l-10.471,7.87c7,1.868,11.539,5.936,11.539,13.273v.133c0,10.071-8.8,15.674-19.142,15.674C64.478,49.241,57.675,46.106,52.539,40.837Z"/>
</svg>