<svg data-name="23" xmlns="http://www.w3.org/2000/svg" viewBox="0 0 100 50"><title>23</title><style>  * { fill: #fff; } </style><path d="M9.437,36.9,28.778,23.029c2.935-2.068,4.069-3.868,4.069-5.669,0-2-1.534-3.468-4.2-3.468s-5.136,1.667-9,5.8L9.37,10.957C14.772,4.288,20.241.686,29.979.686c10.671,0,18.341,6.4,18.341,15.273v.134c0,7.136-3.8,11.005-9.4,14.606l-8.338,5.336H48.787V48.24H9.437Z"/><path d="M50.144,40.837l9.27-9.538c3.468,3.268,7.137,5.069,11,5.069,3.468,0,5.336-1.534,5.336-3.735V32.5c0-2.268-2-3.735-6.136-3.735h-6.6l-2.068-6.936,10.271-8.138H53.878V1.553H89.761V12.291L79.29,20.161c7,1.868,11.538,5.936,11.538,13.273v.133c0,10.071-8.8,15.674-19.141,15.674C62.082,49.241,55.279,46.106,50.144,40.837Z"/></svg>