<svg data-name="8" xmlns="http://www.w3.org/2000/svg" viewBox="0 0 100 50"><title>8</title><style>  * { fill: #fff; } </style><path d="M6.786,25.03V24.9c0-12.872,8.4-24.344,22.543-24.344s22.41,11.339,22.41,24.211V24.9c0,12.873-8.4,24.345-22.544,24.345S6.786,37.9,6.786,25.03Zm29.479,0V24.9c0-6.4-2.868-10.8-7.07-10.8s-6.936,4.268-6.936,10.671V24.9c0,6.4,2.868,10.805,7.07,10.805S36.265,31.433,36.265,25.03Z"/><path d="M53.729,35.368v-.134c0-5.669,3.334-9.137,8.4-11.205-3.535-1.8-6.8-5-6.8-10.137v-.134C55.329,6.088,63,.686,74.071.686s18.741,5.4,18.741,13.072v.134c0,5.135-3.268,8.337-6.8,10.137,4.736,1.935,8.4,5.269,8.4,11.205v.134c0,8.137-8.27,13.739-20.342,13.739S53.729,43.438,53.729,35.368Zm25.744-1.734V33.5c0-2.534-2.134-4.535-5.4-4.535s-5.4,2-5.4,4.535v.134c0,2.334,1.8,4.669,5.4,4.669S79.473,35.9,79.473,33.634Zm-.534-17.808v-.134a4.893,4.893,0,0,0-9.737,0v.134a4.881,4.881,0,0,0,9.737,0Z"/></svg>