<svg data-name="April" xmlns="http://www.w3.org/2000/svg" viewBox="0 0 100 30.9"><title>April</title><style>  * { fill: #fff; } </style><path d="M17.864.694h4.7L35.25,29.739H29.894l-2.925-6.963H13.332l-2.966,6.963H5.175Zm7.251,17.592L20.13,6.75,15.186,18.286Z"/><path d="M41.356.9H52.727c6.757,0,10.959,3.832,10.959,9.641v.083c0,6.468-5.191,9.846-11.536,9.846H46.424v9.27H41.356Zm10.959,15c3.831,0,6.221-2.142,6.221-5.15v-.082c0-3.378-2.431-5.15-6.221-5.15H46.424V15.9Z"/><path d="M70.13.9H82.984c3.626,0,6.469,1.072,8.323,2.885A8.715,8.715,0,0,1,93.7,10v.083c0,4.738-2.843,7.58-6.839,8.734l7.787,10.918H88.628L81.542,19.687H75.2V29.739H70.13ZM82.613,15.2c3.626,0,5.933-1.9,5.933-4.821v-.082c0-3.09-2.225-4.779-5.974-4.779H75.2V15.2Z"/></svg>