<svg data-name="26" xmlns="http://www.w3.org/2000/svg" viewBox="0 0 100 50"><title>26</title><style>  * { fill: #fff; } </style><path d="M8.239,36.9,27.581,23.029c2.935-2.068,4.068-3.868,4.068-5.669,0-2-1.533-3.468-4.2-3.468s-5.136,1.667-9,5.8L8.173,10.957C13.575,4.288,19.044.686,28.782.686c10.671,0,18.341,6.4,18.341,15.273v.134c0,7.136-3.8,11.005-9.4,14.606l-8.337,5.336H47.59V48.24H8.239Z"/><path d="M56.543,43.638c-3.535-3.534-5.936-9-5.936-17.274V26.23c0-14.606,7.6-25.678,22.877-25.678a26.739,26.739,0,0,1,16.474,5.07L83.222,15.893c-2.735-1.935-5.6-3.335-9.071-3.335-6.336,0-7.937,5.6-8.2,9.137,3.535-2.934,6.737-4.135,10.538-4.135,7.137,0,14.407,5.2,14.407,14.206V31.9c0,11.271-9,17.341-19.342,17.341C64.48,49.241,60.011,47.106,56.543,43.638Zm19.409-10.8V32.7a5.069,5.069,0,0,0-5.136-5.2,4.9,4.9,0,0,0-5,5.135v.134a5.085,5.085,0,0,0,5.136,5.269A4.922,4.922,0,0,0,75.952,32.833Z"/></svg>