<svg data-name="March" xmlns="http://www.w3.org/2000/svg" viewBox="0 0 99 30.9"><title>March"</title><style>  * { fill: #fff; } </style><path d="M2.572.9h5.4l8.776,13.637L25.52.9h5.4V29.738H25.85V9.057l-9.1,13.6H16.58L7.557,9.139v20.6H2.572Z"/><path d="M49.713.693h4.7L67.1,29.738H61.743l-2.925-6.962H45.181l-2.966,6.962H37.023Zm7.251,17.592L51.979,6.75,47.035,18.285Z"/><path d="M73.205.9H86.059c3.626,0,6.468,1.071,8.322,2.884A8.72,8.72,0,0,1,96.771,10v.082c0,4.738-2.843,7.581-6.839,8.735l7.786,10.917H91.7L84.617,19.686H78.272V29.738H73.205ZM85.688,15.2c3.625,0,5.933-1.895,5.933-4.82v-.083c0-3.089-2.225-4.779-5.974-4.779H78.272V15.2Z"/></svg>