<svg data-name="30" xmlns="http://www.w3.org/2000/svg" viewBox="0 0 95 50"><title>30</title><style>  * { fill: #fff; } </style><path d="M5.072,40.837l9.27-9.538c3.469,3.268,7.137,5.069,11.005,5.069,3.468,0,5.336-1.534,5.336-3.735V32.5c0-2.268-2-3.735-6.136-3.735h-6.6l-2.068-6.936,10.271-8.138H8.807V1.553H44.689V12.291l-10.471,7.87c7,1.868,11.538,5.936,11.538,13.273v.133c0,10.071-8.8,15.674-19.141,15.674C17.01,49.241,10.208,46.106,5.072,40.837Z"/><path d="M48.046,25.03V24.9c0-12.872,8.4-24.344,22.543-24.344S93,11.891,93,24.763V24.9c0,12.873-8.4,24.345-22.543,24.345S48.046,37.9,48.046,25.03Zm29.479,0V24.9c0-6.4-2.867-10.8-7.069-10.8s-6.937,4.268-6.937,10.671V24.9c0,6.4,2.868,10.805,7.07,10.805S77.525,31.433,77.525,25.03Z"/></svg>