<svg data-name="19" xmlns="http://www.w3.org/2000/svg" viewBox="0 0 100 50"><title>19</title><style>  * { fill: #fff; } </style><path d="M23.831,14.892l-7.6,1.668-2.8-11.539,13.939-3.8H39.17V48.24H23.831Z"/><path d="M69.2,28.365A14.371,14.371,0,0,1,58.86,32.7c-7.936,0-14.672-5.669-14.672-14.473v-.133C44.188,6.955,52.791.552,63.6.552c7.27,0,11.672,2.2,15.207,5.737,3.4,3.4,5.669,9,5.669,17.007v.133c0,15.341-8.137,25.812-22.743,25.812a28.112,28.112,0,0,1-17.275-5.47L51.19,33.7A15.955,15.955,0,0,0,61,37.235C67.464,37.235,68.865,31.9,69.2,28.365Zm.134-10.872V17.36a5.306,5.306,0,0,0-5.2-5.6c-3.067,0-5.068,2.468-5.068,5.536v.134a5.063,5.063,0,0,0,5.2,5.269A4.976,4.976,0,0,0,69.332,17.493Z"/></svg>