<svg data-name="28" xmlns="http://www.w3.org/2000/svg" viewBox="0 0 100 50"><title>28</title><style>  * { fill: #fff; } </style><path d="M8.889,36.9,28.23,23.029c2.935-2.068,4.069-3.868,4.069-5.669,0-2-1.534-3.468-4.2-3.468s-5.136,1.667-9,5.8L8.822,10.957C14.225,4.288,19.693.686,29.431.686c10.672,0,18.341,6.4,18.341,15.273v.134c0,7.136-3.8,11.005-9.4,14.606l-8.338,5.336H48.239V48.24H8.889Z"/><path d="M50.89,35.368v-.134c0-5.669,3.335-9.137,8.4-11.205-3.535-1.8-6.8-5-6.8-10.137v-.134C52.49,6.088,60.16.686,71.232.686s18.742,5.4,18.742,13.072v.134c0,5.135-3.268,8.337-6.8,10.137,4.736,1.935,8.4,5.269,8.4,11.205v.134c0,8.137-8.27,13.739-20.342,13.739S50.89,43.438,50.89,35.368Zm25.744-1.734V33.5c0-2.534-2.134-4.535-5.4-4.535s-5.4,2-5.4,4.535v.134c0,2.334,1.8,4.669,5.4,4.669S76.634,35.9,76.634,33.634ZM76.1,15.826v-.134a4.894,4.894,0,0,0-9.738,0v.134a4.881,4.881,0,0,0,9.738,0Z"/></svg>