<svg data-name="September" xmlns="http://www.w3.org/2000/svg" viewBox="0 0 99 30.9"><title>September</title><style>  * { fill: #fff; } </style><path d="M9.558,25.536l3.049-3.625a13.358,13.358,0,0,0,9.105,3.749c3.131,0,5.108-1.484,5.108-3.626v-.082c0-2.06-1.153-3.173-6.509-4.409-6.139-1.483-9.6-3.295-9.6-8.61V8.851c0-4.944,4.12-8.364,9.846-8.364A15.977,15.977,0,0,1,31.022,4.113L28.3,7.944a13.1,13.1,0,0,0-7.828-2.966c-2.966,0-4.7,1.524-4.7,3.419V8.48c0,2.225,1.319,3.213,6.88,4.532,6.1,1.483,9.229,3.666,9.229,8.446v.082c0,5.4-4.243,8.61-10.3,8.61A17.765,17.765,0,0,1,9.558,25.536Z"/><path d="M39.329.9H60.711V5.431H44.4v7.5H58.857v4.532H44.4v7.746H60.917v4.531H39.329Z"/><path d="M68.548.9H79.919C86.676.9,90.878,4.73,90.878,10.54v.082c0,6.468-5.191,9.847-11.536,9.847H73.616v9.269H68.548Zm10.959,15c3.831,0,6.221-2.143,6.221-5.15v-.083c0-3.378-2.431-5.15-6.221-5.15H73.616V15.9Z"/></svg>