<svg data-name="13" xmlns="http://www.w3.org/2000/svg" viewBox="0 0 100 50"><title>13</title><style>  * { fill: #fff; } </style><path d="M25.5,14.892,17.9,16.56l-2.8-11.539,13.94-3.8H40.838V48.24H25.5Z"/><path d="M43.121,40.837l9.27-9.538c3.468,3.268,7.137,5.069,11.005,5.069,3.468,0,5.336-1.534,5.336-3.735V32.5c0-2.268-2-3.735-6.136-3.735h-6.6l-2.068-6.936L64.2,13.691H46.855V1.553H82.738V12.291l-10.471,7.87c7,1.868,11.538,5.936,11.538,13.273v.133c0,10.071-8.8,15.674-19.141,15.674C55.059,49.241,48.256,46.106,43.121,40.837Z"/></svg>