<svg data-name="4" xmlns="http://www.w3.org/2000/svg" viewBox="0 0 100 50">
    <title>4</title><style>  * { fill: #fff; } </style>
    <style>
        * { fill: #fff; }
    </style>
    <path d="M4.672,25.03V24.9c0-12.872,8.4-24.344,22.543-24.344s22.41,11.339,22.41,24.211V24.9c0,12.873-8.4,24.345-22.543,24.345S4.672,37.9,4.672,25.03Zm29.479,0V24.9c0-6.4-2.867-10.8-7.069-10.8s-6.937,4.268-6.937,10.671V24.9c0,6.4,2.868,10.805,7.07,10.805S34.151,31.433,34.151,25.03Z"/>
    <path d="M76.132,40.17H53.656L51.122,29.232,73.932,1.219h17.34V29.165h5.6V40.17h-5.6v8.07H76.132Zm0-10.805V16.96l-9.937,12.4Z"/>
</svg>