<svg data-name="January" xmlns="http://www.w3.org/2000/svg" viewBox="0 0 100 30.9"><title>January</title><style>  * { fill: #fff; } </style><path d="M6.3,25.5l3.337-3.461c1.689,2.184,3.378,3.42,5.809,3.42,2.719,0,4.573-1.813,4.573-5.686V.9h5.232V19.933c0,3.42-1.03,5.974-2.719,7.663a9.63,9.63,0,0,1-7,2.554A10.861,10.861,0,0,1,6.3,25.5Z"/><path d="M42.382.693h4.7L59.768,29.738H54.412l-2.925-6.962H37.851l-2.967,6.962H29.693Zm7.251,17.592L44.648,6.75,39.7,18.285Z"/><path d="M65.875.9h4.7l15.45,19.94V.9h4.985V29.738H86.762L70.859,9.221V29.738H65.875Z"/></svg>