<svg data-name="20" xmlns="http://www.w3.org/2000/svg" viewBox="0 0 100 50"><title>20</title><style>  * { fill: #fff; } </style><path d="M6.161,36.9,25.5,23.029c2.935-2.068,4.069-3.868,4.069-5.669,0-2-1.534-3.468-4.2-3.468s-5.136,1.667-9,5.8L6.094,10.957C11.5,4.288,16.965.686,26.7.686c10.672,0,18.341,6.4,18.341,15.273v.134c0,7.136-3.8,11.005-9.4,14.606L27.3,36.035H45.511V48.24H6.161Z"/><path d="M48.148,25.03V24.9c0-12.872,8.4-24.344,22.543-24.344S93.1,11.891,93.1,24.763V24.9c0,12.873-8.4,24.345-22.544,24.345S48.148,37.9,48.148,25.03Zm29.48,0V24.9c0-6.4-2.868-10.8-7.07-10.8s-6.936,4.268-6.936,10.671V24.9c0,6.4,2.868,10.805,7.069,10.805S77.628,31.433,77.628,25.03Z"/></svg>