<svg data-name="October" xmlns="http://www.w3.org/2000/svg" viewBox="0 0 100 30.9"><title>October</title><style>  * { fill: #fff; } </style><path d="M4.88,15.4v-.082A14.777,14.777,0,0,1,20,.4,14.64,14.64,0,0,1,35.038,15.236v.082a14.776,14.776,0,0,1-15.12,14.914A14.639,14.639,0,0,1,4.88,15.4Zm24.843,0v-.082c0-5.6-4.078-10.258-9.8-10.258S10.2,9.633,10.2,15.236v.082c0,5.6,4.079,10.218,9.805,10.218S29.723,21,29.723,15.4Z"/><path d="M41.107,15.4v-.082A14.594,14.594,0,0,1,55.979.4,15.032,15.032,0,0,1,67.268,4.895L64.014,8.644C61.707,6.5,59.234,5.06,55.938,5.06c-5.479,0-9.516,4.532-9.516,10.176v.082c0,5.644,4,10.218,9.516,10.218,3.543,0,5.81-1.4,8.282-3.708l3.254,3.3a14.879,14.879,0,0,1-11.7,5.108A14.5,14.5,0,0,1,41.107,15.4Z"/><path d="M81.8,5.6H72.649V.9h23.4V5.6H86.9V29.738H81.8Z"/></svg>